<mxfile host="app.diagrams.net" modified="2020-09-05T07:47:36.099Z" agent="5.0 (Macintosh; Intel Mac OS X 10_14_5) AppleWebKit/537.36 (KHTML, like Gecko) Chrome/72.0.3626.109 Safari/537.36" etag="tYS62dRdjEaRJTBKjI0S" version="13.6.6" type="github">
  <diagram id="MnLv_0w_TifV8Hl3NhlG" name="Page-1">
    <mxGraphModel dx="1728" dy="574" grid="1" gridSize="10" guides="1" tooltips="1" connect="1" arrows="1" fold="1" page="1" pageScale="1" pageWidth="827" pageHeight="1169" math="0" shadow="0">
      <root>
        <mxCell id="0" />
        <mxCell id="1" parent="0" />
        <mxCell id="ULdh9nsuljbXBVtEyTDW-1" value="server" style="ellipse;shape=cloud;whiteSpace=wrap;html=1;" parent="1" vertex="1">
          <mxGeometry x="-40" y="205" width="120" height="80" as="geometry" />
        </mxCell>
        <mxCell id="ULdh9nsuljbXBVtEyTDW-2" value="client" style="ellipse;whiteSpace=wrap;html=1;" parent="1" vertex="1">
          <mxGeometry x="520" y="210" width="100" height="55" as="geometry" />
        </mxCell>
        <mxCell id="ULdh9nsuljbXBVtEyTDW-3" value="" style="html=1;shadow=0;dashed=0;align=center;verticalAlign=middle;shape=mxgraph.arrows2.twoWayArrow;dy=0.65;dx=22;" parent="1" vertex="1">
          <mxGeometry x="170" y="150" width="270" height="190" as="geometry" />
        </mxCell>
        <mxCell id="ULdh9nsuljbXBVtEyTDW-4" value="ServerSocketChannel" style="text;html=1;strokeColor=none;fillColor=none;align=center;verticalAlign=middle;whiteSpace=wrap;rounded=0;" parent="1" vertex="1">
          <mxGeometry x="10" y="170" width="40" height="20" as="geometry" />
        </mxCell>
        <mxCell id="ULdh9nsuljbXBVtEyTDW-5" value="SocketChannel" style="text;html=1;strokeColor=none;fillColor=none;align=center;verticalAlign=middle;whiteSpace=wrap;rounded=0;" parent="1" vertex="1">
          <mxGeometry x="540" y="175" width="40" height="20" as="geometry" />
        </mxCell>
        <mxCell id="ULdh9nsuljbXBVtEyTDW-6" value="&lt;meta charset=&quot;utf-8&quot;&gt;&lt;span style=&quot;color: rgb(0, 0, 0); font-family: helvetica; font-size: 12px; font-style: normal; font-weight: 400; letter-spacing: normal; text-align: center; text-indent: 0px; text-transform: none; word-spacing: 0px; background-color: rgb(248, 249, 250); display: inline; float: none;&quot;&gt;channel&lt;/span&gt;" style="text;whiteSpace=wrap;html=1;" parent="1" vertex="1">
          <mxGeometry x="280" y="175" width="70" height="30" as="geometry" />
        </mxCell>
        <mxCell id="ULdh9nsuljbXBVtEyTDW-7" value="" style="rounded=1;whiteSpace=wrap;html=1;" parent="1" vertex="1">
          <mxGeometry x="182.5" y="216.25" width="245" height="53.75" as="geometry" />
        </mxCell>
        <mxCell id="ULdh9nsuljbXBVtEyTDW-8" style="edgeStyle=orthogonalEdgeStyle;rounded=0;orthogonalLoop=1;jettySize=auto;html=1;exitX=1;exitY=0.5;exitDx=0;exitDy=0;entryX=0;entryY=0.5;entryDx=0;entryDy=0;" parent="1" source="ULdh9nsuljbXBVtEyTDW-9" target="ULdh9nsuljbXBVtEyTDW-10" edge="1">
          <mxGeometry relative="1" as="geometry" />
        </mxCell>
        <mxCell id="ULdh9nsuljbXBVtEyTDW-9" value="ChannelHandler" style="rounded=0;whiteSpace=wrap;html=1;" parent="1" vertex="1">
          <mxGeometry x="200" y="225" width="90" height="20" as="geometry" />
        </mxCell>
        <mxCell id="ULdh9nsuljbXBVtEyTDW-10" value="ChannelHandler" style="rounded=0;whiteSpace=wrap;html=1;" parent="1" vertex="1">
          <mxGeometry x="323.5" y="225" width="90" height="20" as="geometry" />
        </mxCell>
        <mxCell id="ULdh9nsuljbXBVtEyTDW-11" value="&lt;div style=&quot;text-align: center&quot;&gt;&lt;span&gt;&lt;font face=&quot;helvetica&quot;&gt;ChannelPipline&lt;/font&gt;&lt;/span&gt;&lt;/div&gt;" style="text;whiteSpace=wrap;html=1;" parent="1" vertex="1">
          <mxGeometry x="260" y="245" width="70" height="30" as="geometry" />
        </mxCell>
        <mxCell id="PL5oTx_WVRWjmE8jnyH3-1" value="ByteBuf" style="ellipse;shape=cloud;whiteSpace=wrap;html=1;" vertex="1" parent="1">
          <mxGeometry x="90" y="225" width="70" height="40" as="geometry" />
        </mxCell>
        <mxCell id="PL5oTx_WVRWjmE8jnyH3-2" value="ByteBuf" style="ellipse;shape=cloud;whiteSpace=wrap;html=1;" vertex="1" parent="1">
          <mxGeometry x="440" y="215" width="70" height="40" as="geometry" />
        </mxCell>
      </root>
    </mxGraphModel>
  </diagram>
</mxfile>
